<svg xmlns="http://www.w3.org/2000/svg" xmlns:xlink="http://www.w3.org/1999/xlink" id="Layer_1" x="0px" y="0px" viewBox="0 0 68.9 81.1" style="enable-background:new 0 0 68.9 81.1;" xml:space="preserve"><style type="text/css">	.st0{fill:#FFFFFF;}	.st1{fill:none;stroke:#1A4989;stroke-miterlimit:10;}	.st2{fill:#1A4989;}	.st3{clip-path:url(#SVGID_2_);fill:url(#SVGID_3_);}	.st4{clip-path:url(#SVGID_5_);fill:url(#SVGID_6_);}	.st5{clip-path:url(#SVGID_8_);fill:url(#SVGID_9_);}	.st6{clip-path:url(#SVGID_11_);fill:url(#SVGID_12_);}	.st7{clip-path:url(#SVGID_14_);fill:url(#SVGID_15_);}</style><path class="st0" d="M66.3,56.8V36c0-17.9-28-32.9-31.2-34.6l-0.2-0.1l-0.2,0.1C31.4,3.1,3.4,18.3,3.4,36v32l0.5,0.2"></path><path class="st1" d="M63.3,56.8c0.3-0.2,0.6-0.3,0.9-0.5V37.2c0-16.4-25.8-30.3-28.7-31.8l-0.2-0.1l-0.2,0.1C32.1,7,6.4,21,6.4,37.2 v29.4l0.4,0.2l0.4-0.3V37.2c0-15.5,24.5-29.1,28-30.9c2.7,1.4,28,15.2,28,30.9V56.8z"></path><path class="st2" d="M31.9,41.3c-0.2,0.8-1,3.9-1.3,4.7H16.2v-0.9c2.7-0.2,2.9-0.5,2.9-2.9V30.8c0-2.6-0.3-2.7-2.5-2.9V27h9.1 c2.8,0,3.9,0,4.3-0.1c0,0.7,0.2,2.9,0.3,4.5l-0.9,0.1c-0.3-1-0.6-1.7-0.9-2.3c-0.5-0.9-1.1-1.1-2.8-1.1H23c-0.9,0-1,0.1-1,1v6.4h3.2 c2.1,0,2.3-0.4,2.6-2.4h1v6.1h-1c-0.4-2.1-0.6-2.4-2.7-2.4H22v5.7c0,2,0.5,2.3,2.1,2.3h2.6c1.8,0,2.1-0.3,2.7-1 c0.6-0.7,1.2-1.8,1.6-2.7L31.9,41.3z"></path><path class="st2" d="M43.1,46.4c-0.5,0-1.1-0.2-1.5-0.6c-0.4-0.4-0.6-0.8-0.7-1.3c-1.2,0.8-2.6,1.8-3.4,1.8c-2.2,0-3.7-1.8-3.7-3.6 c0-1.5,0.8-2.4,2.4-2.9c1.8-0.6,4-1.4,4.6-1.9v-0.7c0-2-1-3.1-2.4-3.1c-0.6,0-1.1,0.3-1.3,0.7c-0.3,0.4-0.5,1.1-0.8,1.9 c-0.2,0.5-0.5,0.7-0.9,0.7c-0.6,0-1.4-0.6-1.4-1.3c0-0.4,0.4-0.8,1-1.2c0.9-0.7,2.6-1.7,4.3-2.1c0.9,0,1.9,0.3,2.6,0.8 c1.1,0.9,1.5,1.9,1.5,3.4v5.6c0,1.4,0.5,1.8,1,1.8c0.3,0,0.7-0.1,1-0.3l0.3,0.9L43.1,46.4z M40.9,39c-0.6,0.3-1.9,0.9-2.5,1.2 c-1.1,0.5-1.7,1-1.7,2.1c0,1.6,1.2,2.3,2.1,2.3c0.7,0,1.6-0.4,2.2-0.9V39"></path><path class="st2" d="M52.5,46c-0.5,0.3-1,0.4-1.2,0.4c-1.9,0-3-1.1-3-3.5v-8.5h-2L46.1,34l0.8-0.9h1.3v-2.5c0.6-0.6,1.6-1.4,2.2-2 l0.4,0.1c-0.1,1.2-0.1,2.8-0.1,4.4h3.3c0.3,0.3,0.2,1-0.2,1.2h-3.1v7.4c0,2.4,0.9,2.8,1.7,2.8c0.7,0,1.3-0.2,1.7-0.4l0.3,0.8 L52.5,46z"></path><g>	<defs>		<path id="SVGID_1_" d="M10.7,60.4c0.5-2.2,1.1-3.3,1.6-3.3c0.3,0,0.5,0.4,0.7,1.1c0.1,0.4,0.1,1.1,0.1,2c0,0.9-0.3,2.1-0.9,3.7   c-0.6,1.6-1.4,2.6-2.5,3C9.9,64.8,10.2,62.6,10.7,60.4 M9.4,57.2C8,59.4,7.2,62.7,7,66.9l-2.7-0.5c-0.5,0-0.8,0.1-0.8,0.4   s0.2,0.5,0.6,0.7C5,67.7,5.9,68,7,68.1c0,4,0.3,6.7,0.8,8.2C7.9,77,8.3,77.6,8.8,78c0.5,0.4,1,0.6,1.5,0.6c1,0,1.8-0.4,2.7-1.1   c1.7-1.6,3.3-5.4,4.8-11.5c0,3.7,0.3,6.7,0.8,9c0.6,2.4,1.4,3.6,2.6,3.6c1.6,0,3.2-1.3,4.9-4c1.7-2.7,2.5-6.2,2.5-10.5   c0-1.9-0.2-3.6-0.6-5.3c-0.2-0.9-0.6-1.7-1.1-2.3c-0.5-0.6-1.2-0.9-2-0.9c-0.3,0-0.6,0.1-0.8,0.3c-0.2,0.2-0.3,0.5-0.3,0.9   c0,0.8,0.4,1.6,1.3,2.4c0.5,0.5,0.8,0.9,1,1.2c0.6,0.9,0.9,2.7,0.9,5.4c0,2.3-0.5,4.6-1.5,6.9c-1,2.3-2,3.5-2.8,3.5   c-0.6,0-1.2-1.3-1.6-3.9c-0.5-2.6-0.7-5.6-0.7-9l0.2-2.7c0-0.7-0.3-1.1-1-1.1c-0.3,0-0.7,0.2-1.3,0.7c-0.6,0.4-1,0.8-1,1.2   c-0.2,2.3-0.7,4.6-1.4,7c-0.7,2.4-1.5,4.3-2.3,5.6c-0.8,1.4-1.4,2.1-1.9,2.1c-0.6,0-1.1-1.3-1.5-3.8c-0.2-1.3-0.3-2.7-0.3-4.4   c1.5-0.5,2.7-1.6,3.5-3.4c0.8-1.8,1.2-3.7,1.2-5.6c0-2.4-0.8-3.6-2.5-3.6C11,55.3,10.2,55.9,9.4,57.2"></path>	</defs>	<clipPath id="SVGID_2_">		<use xlink:href="#SVGID_1_" style="overflow:visible;"></use>	</clipPath>			<linearGradient id="SVGID_3_" gradientUnits="userSpaceOnUse" x1="-422.5364" y1="1417.5435" x2="-421.5364" y2="1417.5435" gradientTransform="matrix(24.939 0 0 24.939 10541.1777 -35285.1445)">		<stop offset="0" style="stop-color:#1A4988"></stop>		<stop offset="0.5784" style="stop-color:#2E7375"></stop>		<stop offset="1" style="stop-color:#3B8D6A"></stop>	</linearGradient>	<rect x="3.5" y="55.3" class="st3" width="24.9" height="23.3"></rect></g><g>	<defs>		<path id="SVGID_4_" d="M32.9,68.1c0.6-1.2,1.3-1.8,2.2-1.8c0.7,0,1.1,0.5,1.1,1.6c0,1.1-0.3,2-1,2.7c-0.7,0.7-1.8,1.1-3.2,1.4   C32,70.6,32.3,69.3,32.9,68.1 M31.1,67.2c-1.1,1.4-1.7,3.4-1.7,6c0,1.3,0.4,2.5,1.2,3.5c0.8,1,1.9,1.5,3.3,1.5   c2.4,0,4.5-1.3,6.1-3.9c1.5-2.4,2.3-4.2,2.3-5.4c0-0.2-0.1-0.3-0.2-0.3c-0.1,0-0.3,0.1-0.4,0.3c-0.1,0.2-0.3,0.5-0.5,0.9   c-0.8,1.7-1.6,3.2-2.7,4.5c-0.5,0.6-1,1.1-1.7,1.5c-0.6,0.3-1.3,0.5-2,0.5s-1.4-0.3-2-1c-0.6-0.7-0.9-1.5-1-2.5   c1.8,0,3.4-0.6,4.6-1.5c1.3-1,1.9-2.2,1.9-3.7c0-0.8-0.3-1.4-0.8-1.8c-0.6-0.4-1.3-0.7-2.1-0.7C33.7,65.2,32.3,65.9,31.1,67.2"></path>	</defs>	<clipPath id="SVGID_5_">		<use xlink:href="#SVGID_4_" style="overflow:visible;"></use>	</clipPath>			<linearGradient id="SVGID_6_" gradientUnits="userSpaceOnUse" x1="-409.9974" y1="1465.1957" x2="-408.9974" y2="1465.1957" gradientTransform="matrix(12.975 0 0 12.975 5349.0952 -18939.1914)">		<stop offset="0" style="stop-color:#3B8D6A"></stop>		<stop offset="0.4216" style="stop-color:#2E7375"></stop>		<stop offset="1" style="stop-color:#1A4988"></stop>	</linearGradient>	<rect x="29.4" y="65.2" class="st4" width="13" height="13.1"></rect></g><g>	<defs>		<path id="SVGID_7_" d="M45,57.5c0.2,0,0.3,0.4,0.3,1.2c0,1.9-0.7,4.6-2,7.9C43.7,60.5,44.3,57.5,45,57.5 M41.3,62.1   c-0.6,4.7-0.9,8.4-0.9,11.1c0,2.7,0.1,4.2,0.4,4.5c0.1,0.1,0.4,0.2,0.8,0.4c0.5,0.1,1,0.2,1.5,0.2c1.4,0,3-2,5-6.1   c0.7-1.5,1.1-2.6,1.1-3.2c0-0.2-0.1-0.3-0.2-0.3c-0.2,0-0.6,0.8-1.3,2.4c-0.7,1.6-1.5,2.9-2.2,3.9c-0.8,1-1.3,1.5-1.8,1.5   c-0.3,0-0.4-0.7-0.4-2.2c0-1.5,0-3.2,0.1-5.2c2-3.9,3-7.4,3-10.6c0-0.4-0.1-0.9-0.3-1.4c-0.2-0.5-0.5-0.7-1-0.7   C43.1,56.3,41.8,58.2,41.3,62.1"></path>	</defs>	<clipPath id="SVGID_8_">		<use xlink:href="#SVGID_7_" style="overflow:visible;"></use>	</clipPath>			<linearGradient id="SVGID_9_" gradientUnits="userSpaceOnUse" x1="-397.6756" y1="1512.0227" x2="-396.6756" y2="1512.0227" gradientTransform="matrix(8.818 0 0 8.818 3547.0698 -13265.7461)">		<stop offset="0" style="stop-color:#1A4988"></stop>		<stop offset="1.082349e-02" style="stop-color:#1B4C87"></stop>		<stop offset="0.1245" style="stop-color:#27647C"></stop>		<stop offset="0.2529" style="stop-color:#307674"></stop>		<stop offset="0.4048" style="stop-color:#36836E"></stop>		<stop offset="0.6009" style="stop-color:#3A8B6B"></stop>		<stop offset="1" style="stop-color:#3B8D6A"></stop>	</linearGradient>	<rect x="40.4" y="56.3" class="st5" width="8.8" height="22"></rect></g><g>	<defs>		<path id="SVGID_10_" d="M52.3,57.5c0.2,0,0.3,0.4,0.3,1.2c0,1.9-0.7,4.6-2,7.9C51,60.5,51.6,57.5,52.3,57.5 M48.6,62.1   c-0.6,4.7-0.9,8.4-0.9,11.1c0,2.7,0.1,4.2,0.4,4.5c0.1,0.1,0.4,0.2,0.8,0.4c0.5,0.1,1,0.2,1.5,0.2c1.4,0,4.6-2.1,6.5-6.1   c0.7-1.5,1.1-2.6,1.1-3.2c0-0.2-0.1-0.3-0.2-0.3c-0.2,0-0.6,0.8-1.3,2.4c-0.7,1.6-1.5,2.9-2.2,3.9c-0.8,1-2.9,1.5-3.3,1.6   c-0.3,0-0.4-0.7-0.4-2.2c0-1.5,0-3.2,0.1-5.2c2-3.9,3-7.4,3-10.6c0-0.4-0.1-0.9-0.3-1.4c-0.2-0.5-0.5-0.7-1-0.7   C50.4,56.3,49.1,58.2,48.6,62.1"></path>	</defs>	<clipPath id="SVGID_11_">		<use xlink:href="#SVGID_10_" style="overflow:visible;"></use>	</clipPath>			<linearGradient id="SVGID_12_" gradientUnits="userSpaceOnUse" x1="-403.3936" y1="1490.2924" x2="-402.3936" y2="1490.2924" gradientTransform="matrix(10.358 0 0 10.358 4226.0205 -15369.166)">		<stop offset="0" style="stop-color:#3B8D6A"></stop>		<stop offset="0.4511" style="stop-color:#2D7077"></stop>		<stop offset="0.9666" style="stop-color:#1B4A88"></stop>		<stop offset="1" style="stop-color:#1B4A88"></stop>	</linearGradient>	<rect x="47.7" y="56.3" class="st6" width="10.4" height="22"></rect></g><g>	<defs>		<path id="SVGID_13_" d="M65.6,57.5c-2.1,0.5-3.9,1.4-5.2,2.5c-1,0.9-1.8,2.1-2.3,3.4c-0.7,2.1-0.4,3.8-0.4,4.2   c0,0.2-0.1,1.2-0.9,2.6c-0.1,0.1-0.1,0.2-0.2,0.3c0.2,0.1,0.3,0.2,0.5,0.2c0.1,0,0.1,0.1,0.2,0.1c0.1-0.1,0.2-0.2,0.2-0.3   c0.7-1.1,0.9-2,1-2.5c0,0,2.6-3.6,3.9-7.5c0,0.4,0,0.7-0.1,1.1c0,0.2-0.1,0.4-0.1,0.5c0,0.1,0,0.2-0.1,0.3c0,0,0,0.1,0,0.1l0,0.1   c-0.2,0.7-0.5,1.4-0.8,2c-0.3,0.7-0.7,1.3-1.1,1.9c-0.1,0.2-0.2,0.3-0.3,0.5c-0.1,0.2-0.2,0.3-0.3,0.5c-0.1,0.2-0.3,0.4-0.4,0.5   c1.5,0.1,2.8-0.3,3.8-1c0.8-0.6,1.3-1.4,1.7-2.4c0.2-0.6,0.4-1.2,0.4-1.8c0.2-2.1,1-4.8,1-4.8l0.2-0.6L65.6,57.5z"></path>	</defs>	<clipPath id="SVGID_14_">		<use xlink:href="#SVGID_13_" style="overflow:visible;"></use>	</clipPath>			<linearGradient id="SVGID_15_" gradientUnits="userSpaceOnUse" x1="-400.7568" y1="1500.3131" x2="-399.7568" y2="1500.3131" gradientTransform="matrix(9.586 0 0 9.586 3898.3352 -14317.877)">		<stop offset="0" style="stop-color:#1A4988"></stop>		<stop offset="0.5784" style="stop-color:#2E7375"></stop>		<stop offset="1" style="stop-color:#3B8D6A"></stop>	</linearGradient>	<rect x="56.7" y="57.4" class="st7" width="9.6" height="13.5"></rect></g></svg>